<svg width="113" height="16" viewBox="0 0 113 16" fill="none" xmlns="http://www.w3.org/2000/svg">
<path d="M40.3584 0C33.5769 0 28.084 3.5811 28.084 8C28.084 12.4189 33.5769 16 40.3584 16C47.14 16 52.628 12.4189 52.628 8C52.628 3.5811 47.127 0 40.3584 0ZM40.3272 12.5991C39.3062 12.5991 38.4769 10.5315 38.4546 7.9595C39.0788 8.0225 39.7298 8.0541 40.3941 8.0541C41.0139 8.0541 41.6202 8.027 42.2043 7.973C42.1775 10.536 41.3482 12.5991 40.3228 12.5991M40.403 6.2432C39.7699 6.2432 39.1591 6.2117 38.5661 6.1532C38.8381 4.3604 39.5202 3.0856 40.3228 3.0856C41.1253 3.0856 41.8119 4.3694 42.0839 6.1622C41.5489 6.2207 40.9871 6.2387 40.403 6.2387M40.3139 1.1982C38.9718 1.1982 37.8349 3.2027 37.4247 5.991C35.0349 5.5811 33.3852 4.6757 33.3852 3.6261C33.3852 2.1802 36.5285 1.009 40.403 1.009C43.7336 1.009 47.309 2.1802 47.309 3.6261C47.309 4.6937 45.642 5.6171 43.203 6.018C42.7928 3.2117 41.6559 1.1982 40.3094 1.1982M29.9209 8.009C29.9209 6.5766 30.3088 5.1847 31.312 4.0495C31.312 4.0721 31.3075 4.0946 31.3075 4.1171C31.3075 5.8108 33.791 7.2523 37.2642 7.8018C37.2642 7.9595 37.2597 8.1126 37.2597 8.2658C37.2597 11.4189 38.147 14.0946 39.382 15.0045C34.0763 14.6802 29.9209 11.6712 29.9209 8.009ZM41.2368 15.009C42.4718 14.0946 43.3635 11.4234 43.3635 8.2658C43.3635 8.1171 43.3546 7.973 43.3546 7.8243C46.77 7.3153 49.267 5.9414 49.458 4.3063C49.485 4.3378 49.521 4.3694 49.548 4.4009C50.475 5.4505 50.738 6.6892 50.738 8.0045C50.738 11.6847 46.565 14.6937 41.2368 15.0045" fill="#E50020"/>
<path d="M12.7783 0.7162C19.4438 0.7162 24.8476 3.9775 24.8476 8C24.8476 12.0225 19.4438 15.2838 12.7783 15.2838C6.1127 15.2838 0.7089 12.0225 0.7089 8C0.7089 3.9775 6.1082 0.7162 12.7783 0.7162ZM12.7783 0C9.4299 0 6.2688 0.792799 3.8834 2.2342C1.3777 3.7432 0 5.7928 0 8C0 10.2072 1.3777 12.2568 3.879 13.7658C6.2643 15.2072 9.4254 16 12.7738 16C16.1222 16 19.2833 15.2072 21.6687 13.7658C24.1699 12.2568 25.5476 10.2072 25.5476 8C25.5476 5.7928 24.1699 3.7477 21.6687 2.2342C19.2833 0.792799 16.1267 0 12.7783 0Z" fill="#152A8C"/>
<path d="M23.9031 5.17157H14.3975V3.31577C14.3975 3.20767 14.3127 3.12207 14.2057 3.12207H12.6185C12.3242 3.12207 12.0433 3.18057 11.7803 3.29777L11.1605 3.57247C10.6835 3.78417 10.3758 4.26617 10.3758 4.80227V5.18057H1.65039L2.88539 7.18507C3.06819 7.47787 3.32679 7.69867 3.62109 7.83377C3.50069 7.88327 3.41149 8.01847 3.50959 8.18507C3.61219 8.36077 4.06689 9.15357 4.06689 9.15357C4.24969 9.44637 4.50389 9.67157 4.80259 9.80677C4.64209 9.87877 4.59749 10.0005 4.70449 10.1987L5.25739 11.1356C5.56949 11.6356 6.09999 11.9374 6.67519 11.9374H10.3937C10.3758 12.0185 10.3669 12.0951 10.3669 12.1806V13.3518C10.3669 13.4464 10.4427 13.523 10.5363 13.523H15.0217C15.1153 13.523 15.1911 13.4464 15.1911 13.3518V12.1806C15.1911 12.0996 15.1822 12.0185 15.1643 11.9374H18.856C19.4356 11.9374 19.9662 11.6356 20.2783 11.1356L20.8312 10.1987C20.9382 10.0005 20.8936 9.87877 20.7331 9.80677C21.0318 9.67157 21.286 9.44637 21.4688 9.15357C21.4688 9.15357 21.9191 8.36077 22.0261 8.18507C22.1242 8.01847 22.0305 7.88327 21.9102 7.83377C22.2089 7.69867 22.463 7.47787 22.6458 7.18507L23.8942 5.18057L23.9031 5.17157ZM5.93509 10.6806C5.93509 10.6806 5.64079 10.1987 5.48919 9.95087H9.86749C9.86749 9.95087 9.70699 9.61307 9.55989 9.33377C9.49299 9.20317 9.35929 9.12207 9.21659 9.12207H5.48479C5.18599 9.12207 4.90519 8.96437 4.74459 8.70317C4.74459 8.70317 4.42359 8.19867 4.28099 7.96887H9.84969C9.84969 7.96887 9.67579 7.64007 9.51979 7.35177C9.44839 7.22567 9.31909 7.14457 9.18089 7.14457H4.30319C4.00449 7.14457 3.72359 6.98687 3.56759 6.73017L3.11279 6.00497H11.1739V10.8518C11.1739 10.8518 11.1739 10.8608 11.1739 10.8653C11.0847 10.9419 10.9911 11.023 10.8975 11.0996H6.67519C6.37649 11.0996 6.09559 10.9419 5.93509 10.6806ZM14.3885 12.5906C14.3885 12.6401 14.3484 12.6851 14.2994 12.6851H11.2675C11.2185 12.6851 11.1784 12.6446 11.1784 12.5906V12.1716C11.1784 12.0635 11.2274 11.9599 11.3121 11.8924L11.8516 11.4464C11.9319 11.3788 11.9809 11.2752 11.9809 11.1716V5.30677C11.9809 5.23017 11.9229 5.17157 11.8472 5.17157H11.1784V4.68957C11.1784 4.48687 11.2943 4.41037 11.4771 4.32927L12.0835 4.06347C12.2529 3.98687 12.4357 3.95087 12.6185 3.95087H13.4567C13.5325 3.95087 13.5905 4.01397 13.5905 4.08597V11.1671C13.5905 11.2752 13.6395 11.3788 13.7242 11.4464L14.2637 11.8924C14.344 11.9599 14.393 12.0635 14.393 12.1716V12.5906H14.3885ZM21.9726 6.73017C21.8121 6.99147 21.5312 7.14457 21.2369 7.14457H16.3592C16.2166 7.14457 16.0873 7.22567 16.0204 7.35177C15.8643 7.64007 15.6904 7.96887 15.6904 7.96887H21.2592C21.121 8.19417 20.7955 8.70317 20.7955 8.70317C20.635 8.96437 20.3541 9.12207 20.0554 9.12207H16.3236C16.1809 9.12207 16.0471 9.20317 15.9803 9.33377C15.8331 9.61307 15.6726 9.95087 15.6726 9.95087H20.0509C19.8993 10.1987 19.6051 10.6806 19.6051 10.6806C19.4446 10.9419 19.1637 11.0996 18.865 11.0996H14.6694C14.5758 11.023 14.4822 10.9419 14.3975 10.8698C14.3975 10.8653 14.3975 10.8563 14.3975 10.8518V6.00047H22.4318L21.977 6.72567L21.9726 6.73017Z" fill="#152A8C"/>
<path d="M68.657 7.2207H56.748V8.7793H68.657V7.2207Z" fill="#231815"/>
<path d="M73.5089 4.66212L72.6079 1.60352H70.5699L71.4929 4.66212H73.5089Z" fill="#231815"/>
<path d="M73.5089 8.42736L72.6079 5.36426H70.5699L71.4929 8.42736H73.5089Z" fill="#231815"/>
<path d="M73.4329 9.13574H71.4169L70.5699 14.4014H72.6079L73.4329 9.13574Z" fill="#231815"/>
<path d="M83.486 4.58984H74.516V5.91864H83.486V4.58984Z" fill="#231815"/>
<path d="M83.482 2.25671H76.879L77.075 1.60352H75.033L74.453 3.58552H83.482V2.25671Z" fill="#231815"/>
<path d="M83.483 13.0718H76.831L82.81 9.13043C83.229 8.86463 83.483 8.40524 83.483 7.90524V6.92773H74.512V8.25653H80.861L74.882 12.2115C74.463 12.4772 74.209 12.9367 74.209 13.4367V14.4052H83.483V13.0763V13.0718Z" fill="#231815"/>
<path d="M100.475 1.79297V14.2074H110.573C111.452 14.2074 112.838 13.748 112.838 11.8741V1.79297H100.475ZM105.611 12.8786H102.512V8.40557H105.611V12.8786ZM105.611 7.07677H102.512V3.12637H105.611V7.07677ZM110.805 11.8155C110.805 12.5948 110.359 12.8786 109.904 12.8786H107.648V8.40557H110.805V11.8155ZM110.805 7.07677H107.648V3.12637H110.805V7.07677Z" fill="#231815"/>
<path d="M98.308 4.14412V2.81522H92.989V1.60352H90.951V2.81522H85.842V4.14412H90.951V7.00891H85.842V8.33772H90.951V11.2837H85.842V12.6125H90.951V14.4008H92.989V12.6125H98.308V11.2837H92.989V8.33772H98.308V7.00891H92.989V4.14412H98.308Z" fill="#231815"/>
</svg>
